<svg width="316" height="220" viewBox="0 0 316 220" fill="none" xmlns="http://www.w3.org/2000/svg">
<path d="M178.345 86.5022H210.988H178.345ZM139.485 86.5022H172.128H139.485ZM101.403 86.5022H134.045H101.403ZM63.3196 86.5022H95.1849H63.3196ZM24.4596 86.5022H57.102H24.4596ZM63.3196 50.751H95.1849H63.3196ZM101.403 50.751H134.045H101.403ZM139.485 50.751H172.128H139.485ZM139.485 14.9997H172.128Z" fill="black"/>
<path d="M139.485 14.9997H172.128M178.345 86.5022H210.988H178.345ZM139.485 86.5022H172.128H139.485ZM101.403 86.5022H134.045H101.403ZM63.3196 86.5022H95.1849H63.3196ZM24.4596 86.5022H57.102H24.4596ZM63.3196 50.751H95.1849H63.3196ZM101.403 50.751H134.045H101.403ZM139.485 50.751H172.128H139.485Z" stroke="#0091E2" stroke-width="29.5337"/>
<path d="M315.133 88.0567C315.133 88.0567 301.143 74.8442 272.387 79.5075C269.278 56.9686 245.185 43.7562 245.185 43.7562C245.185 43.7562 222.646 70.9582 238.967 101.269C234.304 103.601 226.532 106.709 214.874 106.709H1.14344C-2.74256 121.476 -2.74256 219.404 104.511 219.404C181.454 219.404 238.967 183.652 266.169 118.368C306.584 121.476 315.133 88.0567 315.133 88.0567Z" fill="#0091E2"/>
</svg>
