<svg width="57" height="46" viewBox="0 0 57 46" fill="none" xmlns="http://www.w3.org/2000/svg">
<g clip-path="url(#clip0)">
<path d="M12.33 16.3298H41.67V45.67H12.33V16.3298Z" fill="#F0DB4F"/>
<path d="M39.2688 38.6722C39.0539 37.3337 38.1811 36.2094 35.5957 35.161C34.6976 34.7483 33.6963 34.4528 33.3979 33.7721C33.292 33.376 33.2779 33.1529 33.345 32.9131C33.5374 32.135 34.4662 31.8924 35.2024 32.1156C35.6765 32.2745 36.1254 32.6399 36.3961 33.2228C37.6622 32.4029 37.6596 32.4083 38.5436 31.8449C38.22 31.3431 38.0472 31.1115 37.8354 30.8968C37.0739 30.0463 36.0363 29.6082 34.3769 29.6417L33.5126 29.7535C32.6843 29.9628 31.8949 30.3976 31.432 30.9805C30.0431 32.5564 30.4392 35.3146 32.1293 36.4496C33.7943 37.6993 36.2402 37.9836 36.5526 39.1522C36.8566 40.5828 35.5012 41.046 34.154 40.8814C33.1612 40.6749 32.609 40.1703 32.0121 39.2528C30.9133 39.8886 30.9133 39.8886 29.7836 40.5383C30.0515 41.124 30.333 41.3891 30.7821 41.8965C32.9074 44.0523 38.2258 43.9464 39.1797 40.6834C39.2184 40.5714 39.4753 39.8242 39.2688 38.6722V38.6722ZM28.2801 29.8145H25.5358L25.5246 36.9095C25.5246 38.4184 25.6026 39.8017 25.3572 40.2256C24.9558 41.0596 23.9154 40.9562 23.4412 40.7945C22.9586 40.5573 22.7133 40.22 22.429 39.7433C22.3509 39.6064 22.2923 39.5005 22.2726 39.4923L20.0414 40.8587C20.4124 41.6202 20.959 42.2811 21.659 42.7105C22.7048 43.3382 24.1104 43.5306 25.5804 43.1931C26.5371 42.9144 27.3626 42.3371 27.7947 41.4585C28.4196 40.3065 28.2855 38.9122 28.2799 37.37C28.294 34.854 28.2801 32.3385 28.2801 29.8145Z" fill="#323330"/>
</g>
<g clip-path="url(#clip1)">
<path d="M15.3684 35.2144L3.89291 14.4555L25.063 5.10041L32.6825 27.5592L25.0752 33.7938L15.3684 35.2144Z" fill="#1572B6"/>
<path d="M24.2764 31.9513L30.4239 26.9132L23.9129 7.72104L15.2589 11.5452L24.2764 31.9513Z" fill="#33A9DC"/>
<path d="M18.7186 19.3743L22.2258 17.8244L21.2683 15.0036L17.5193 16.6603L16.348 14.0097L16.3574 14.0055L22.9937 11.073L23.2443 11.8119L25.8212 19.4037L19.8899 22.0248L18.7186 19.3743Z" fill="#F8F8F8"/>
<path d="M21.7766 26.2503L21.7661 26.259L18.4622 26.7658L17.3394 24.7354L15.9048 25.3694L14.6786 25.9113L16.8889 29.9087L22.9839 29.0171L22.9952 29.008L21.7766 26.2503Z" fill="#F8F8F8"/>
<path d="M23.1219 20.4623L24.3713 24.1525L21.7679 26.2562L22.9866 29.0139L27.7543 25.1072L27.5968 24.6418L25.781 19.2873L23.1219 20.4623Z" fill="#F8F8F8"/>
<path d="M16.3574 14.0056L17.085 15.652L17.5257 16.6492L17.5287 16.6561L11.1351 19.4814L11.1266 19.4852L10.81 18.9127L10.0953 17.6225L9.71776 16.9396L16.3574 14.0056Z" fill="#F8F8F8"/>
<path d="M18.7186 19.3743L19.4462 21.0207L19.8869 22.018L19.8899 22.0248L16.9838 23.309L16.9752 23.3128L16.6587 22.7403L15.9449 21.4497L15.5673 20.7668L18.7186 19.3743Z" fill="#F8F8F8"/>
</g>
<g clip-path="url(#clip2)">
<path d="M24.7697 25.8045L31.1856 2.96906L52.8255 11.1843L42.4695 32.52L32.6758 31.6127L24.7697 25.8045Z" fill="#E44F26"/>
<path d="M33.4017 29.7404L41.316 30.4736L50.1651 12.2411L41.3198 8.88312L33.4017 29.7404Z" fill="#F1662A"/>
<path d="M38.21 17.0746L34.6253 15.7137L35.4312 12.8458L39.2631 14.3006L40.2916 11.5914L40.282 11.5877L33.499 9.0127L33.2877 9.76478L31.119 17.4822L37.1815 19.7837L38.21 17.0746Z" fill="#F8F8F8"/>
<path d="M35.5391 24.11L35.5255 24.1088L32.8179 22.1493L33.4452 19.9156L31.9789 19.3589L30.7256 18.8831L29.4906 23.2798L34.4555 26.9275L34.4691 26.9287L35.5391 24.11Z" fill="#F8F8F8"/>
<path d="M38.2004 17.0709L37.1719 19.78L40.5077 21.0464L38.86 24.441L35.5285 24.1089L34.4584 26.9276L40.5972 27.4962L40.8112 27.054L44.155 20.1637L44.4978 19.4616L43.7677 19.1844L38.2004 17.0709Z" fill="#F8F8F8"/>
<path d="M40.282 11.5877L39.6431 13.2705L39.2558 14.2907L39.2535 14.2969L45.7884 16.7777L45.7972 16.7811L46.0824 16.1934L46.7274 14.8669L47.0684 14.1641L40.282 11.5877Z" fill="#F8F8F8"/>
</g>
<defs>
<clipPath id="clip0">
<rect width="30" height="30" fill="white" transform="translate(12 15.9998)"/>
</clipPath>
<clipPath id="clip1">
<rect width="30" height="30" fill="white" transform="translate(0 14.1259) rotate(-23.8407)"/>
</clipPath>
<clipPath id="clip2">
<rect width="30" height="30" fill="white" transform="translate(28.6475) rotate(20.7884)"/>
</clipPath>
</defs>
</svg>
